<?xml version="1.0" encoding="utf-8"?>
<!-- Generator: Adobe Illustrator 16.0.0, SVG Export Plug-In . SVG Version: 6.00 Build 0)  -->
<!DOCTYPE svg PUBLIC "-//W3C//DTD SVG 1.1//EN" "http://www.w3.org/Graphics/SVG/1.1/DTD/svg11.dtd">
<svg version="1.1" id="Layer_1" xmlns="http://www.w3.org/2000/svg" xmlns:xlink="http://www.w3.org/1999/xlink" x="0px" y="0px"
	 width="68.38px" height="68.38px" viewBox="-0.5 -0.501 68.38 68.38" enable-background="new -0.5 -0.501 68.38 68.38"
	 xml:space="preserve">
<path fill="#FFFFFF" d="M33.525,56.962C20.748,56.875,10.412,46.49,10.412,33.691c0-12.858,10.422-23.278,23.277-23.278
	c12.854,0,23.276,10.419,23.276,23.278l0,0h10.414C67.379,15.083,52.297,0,33.689,0C15.083,0,0,15.083,0,33.691
	C0,52.24,14.998,67.289,33.525,67.378V56.962L33.525,56.962z"/>
<path fill="#FFFFFF" d="M51.372,34.861l2.737-1.105l-2.728-0.971c-0.487-8.961-7.647-16.142-16.602-16.66l-1.034-2.712l-1.051,2.712
	c-8.937,0.521-16.085,7.691-16.584,16.635l-2.844,0.99l2.844,0.99c0.493,8.955,7.657,16.133,16.605,16.646l1.029,2.576l1.032-2.576
	C43.685,50.873,50.822,43.759,51.372,34.861z M33.748,49.453c-8.671,0-15.702-7.026-15.702-15.697
	c0-8.672,7.03-15.705,15.702-15.705c8.672,0,15.702,7.032,15.702,15.705C49.45,42.425,42.418,49.453,33.748,49.453z"/>
<path d="M33.689,33.688l9.013-9.265c-2.332-2.266-5.506-3.663-9.013-3.663c-7.142,0-12.929,5.79-12.929,12.928
	c0,7.14,5.787,12.929,12.929,12.929c7.142,0,12.929-5.789,12.929-12.929H33.689L33.689,33.688z"/>
</svg>
